<svg width="34" height="27" viewBox="0 0 34 27" fill="none" xmlns="http://www.w3.org/2000/svg">
<path d="M10.6803 27C23.511 27 30.5299 16.6097 30.5299 7.61503C30.5299 7.32428 30.5299 7.02937 30.5171 6.73862C31.8836 5.77183 33.063 4.57489 34 3.20388C32.7235 3.75393 31.3709 4.11645 29.9859 4.27967C31.4448 3.42743 32.5374 2.08649 33.0607 0.506105C31.6901 1.2997 30.1899 1.85681 28.6259 2.15302C27.5744 1.05859 26.183 0.333559 24.6672 0.0902388C23.1514 -0.153081 21.5958 0.0988866 20.2413 0.807112C18.8869 1.51534 17.8092 2.6403 17.1752 4.00774C16.5412 5.37517 16.3863 6.90878 16.7344 8.37099C13.9607 8.23507 11.2472 7.53086 8.76997 6.30403C6.2927 5.07721 4.10695 3.35517 2.3545 1.2496C1.46485 2.75131 1.19334 4.52765 1.59512 6.21789C1.9969 7.90814 3.04184 9.38558 4.51775 10.3502C3.41177 10.3135 2.33011 10.0232 1.36 9.50286V9.59631C1.36191 11.1695 1.91953 12.6937 2.93861 13.9114C3.95769 15.1291 5.37571 15.9656 6.953 16.2795C6.35431 16.4407 5.73586 16.521 5.11488 16.5183C4.67709 16.5196 4.24018 16.48 3.81012 16.4C4.25592 17.7542 5.12396 18.9382 6.29265 19.7861C7.46134 20.6341 8.87216 21.1036 10.3275 21.1289C7.85518 23.0266 4.80123 24.0559 1.6575 24.0509C1.10356 24.0532 0.549999 24.022 0 23.9575C3.19072 25.9455 6.89626 27.0011 10.6803 27Z" fill="white"/>
</svg>
