<svg width="32" height="33" viewBox="0 0 32 33" fill="none" xmlns="http://www.w3.org/2000/svg">
<path d="M16 0C11.658 0 11.112 0.020625 9.406 0.099C7.7 0.1815 6.538 0.457875 5.52 0.86625C4.45219 1.28044 3.48498 1.93014 2.686 2.76994C1.87215 3.59431 1.24221 4.59162 0.84 5.6925C0.444 6.74025 0.174 7.94062 0.096 9.69375C0.02 11.4572 0 12.0182 0 16.5021C0 20.9818 0.02 21.5428 0.096 23.3021C0.176 25.0594 0.444 26.2577 0.84 27.3075C1.25 28.3924 1.796 29.3122 2.686 30.2301C3.574 31.1479 4.466 31.713 5.518 32.1338C6.538 32.5421 7.698 32.8206 9.402 32.901C11.11 32.9794 11.654 33 16 33C20.346 33 20.888 32.9794 22.596 32.901C24.298 32.8185 25.464 32.5421 26.482 32.1338C27.5491 31.7194 28.5156 31.0697 29.314 30.2301C30.204 29.3122 30.75 28.3924 31.16 27.3075C31.554 26.2577 31.824 25.0594 31.904 23.3021C31.98 21.5428 32 20.9818 32 16.5C32 12.0182 31.98 11.4572 31.904 9.69581C31.824 7.94063 31.554 6.74025 31.16 5.6925C30.7578 4.59159 30.1279 3.59427 29.314 2.76994C28.5153 1.92983 27.548 1.28008 26.48 0.86625C25.46 0.457875 24.296 0.179438 22.594 0.099C20.886 0.020625 20.344 0 15.996 0H16.002H16ZM14.566 2.97413H16.002C20.274 2.97413 20.78 2.98856 22.466 3.069C24.026 3.14119 24.874 3.41138 25.438 3.63619C26.184 3.93525 26.718 4.29413 27.278 4.87162C27.838 5.44912 28.184 5.99775 28.474 6.76912C28.694 7.34869 28.954 8.22319 29.024 9.83194C29.102 11.5706 29.118 12.0924 29.118 16.4959C29.118 20.8993 29.102 21.4232 29.024 23.1619C28.954 24.7706 28.692 25.6431 28.474 26.2247C28.2175 26.9411 27.8081 27.5889 27.276 28.1201C26.716 28.6976 26.184 29.0544 25.436 29.3535C24.876 29.5804 24.028 29.8485 22.466 29.9228C20.78 30.0011 20.274 30.0197 16.002 30.0197C11.73 30.0197 11.222 30.0011 9.536 29.9228C7.976 29.8485 7.13 29.5804 6.566 29.3535C5.871 29.0893 5.24225 28.6679 4.726 28.1201C4.1935 27.5881 3.78345 26.9397 3.526 26.2226C3.308 25.6431 3.046 24.7686 2.976 23.1598C2.9 21.4211 2.884 20.8993 2.884 16.4917C2.884 12.0862 2.9 11.5665 2.976 9.82781C3.048 8.21906 3.308 7.34456 3.528 6.76294C3.818 5.99363 4.166 5.44294 4.726 4.86544C5.286 4.28794 5.818 3.93113 6.566 3.63206C7.13 3.40519 7.976 3.13706 9.536 3.06281C11.012 2.99269 11.584 2.97206 14.566 2.97V2.97413ZM24.542 5.71312C24.2899 5.71312 24.0402 5.76434 23.8072 5.86384C23.5743 5.96335 23.3626 6.10919 23.1844 6.29305C23.0061 6.47691 22.8646 6.69519 22.7682 6.93541C22.6717 7.17564 22.622 7.43311 22.622 7.69313C22.622 7.95314 22.6717 8.21061 22.7682 8.45084C22.8646 8.69106 23.0061 8.90934 23.1844 9.0932C23.3626 9.27706 23.5743 9.4229 23.8072 9.52241C24.0402 9.62191 24.2899 9.67313 24.542 9.67313C25.0512 9.67313 25.5396 9.46452 25.8996 9.0932C26.2597 8.72187 26.462 8.21825 26.462 7.69313C26.462 7.168 26.2597 6.66438 25.8996 6.29305C25.5396 5.92173 25.0512 5.71312 24.542 5.71312ZM16.002 8.02725C14.9121 8.00972 13.8298 8.21594 12.818 8.63392C11.8061 9.05189 10.885 9.67327 10.1083 10.4619C9.33157 11.2505 8.71473 12.1905 8.29368 13.2273C7.87264 14.2642 7.6558 15.377 7.6558 16.501C7.6558 17.6251 7.87264 18.7379 8.29368 19.7747C8.71473 20.8115 9.33157 21.7516 10.1083 22.5402C10.885 23.3288 11.8061 23.9502 12.818 24.3681C13.8298 24.7861 14.9121 24.9923 16.002 24.9748C18.1591 24.9401 20.2164 24.0321 21.73 22.4467C23.2435 20.8613 24.0918 18.7258 24.0918 16.501C24.0918 14.2763 23.2435 12.1407 21.73 10.5554C20.2164 8.96999 18.1591 8.06196 16.002 8.02725ZM16.002 10.9993C17.4167 10.9993 18.7734 11.5788 19.7737 12.6104C20.774 13.642 21.336 15.0411 21.336 16.5C21.336 17.9589 20.774 19.358 19.7737 20.3896C18.7734 21.4212 17.4167 22.0007 16.002 22.0007C14.5873 22.0007 13.2306 21.4212 12.2303 20.3896C11.23 19.358 10.668 17.9589 10.668 16.5C10.668 15.0411 11.23 13.642 12.2303 12.6104C13.2306 11.5788 14.5873 10.9993 16.002 10.9993Z" fill="white"/>
</svg>
